<svg xmlns="http://www.w3.org/2000/svg" width="95.042" height="95.042" viewBox="0 0 25.146 25.146"><path d="M113.394 158.427h23.808c.37 0 .669.298.669.669v23.808c0 .37-.299.67-.67.67h-23.807a.67.67 0 0 1-.67-.67v-23.808c0-.37.299-.67.67-.67" style="opacity:.93;fill:#0055d4;stroke-width:.0860977" transform="translate(-112.724 -158.427)"/><path d="M118.068 176.41v-5.497q0-2.4 1.306-3.707 1.305-1.305 3.854-1.305h2.901v3.201h-2.818q-1.782 0-1.782 1.79v5.519zm7.46 3.665v-3.033h1.12q1.242 0 1.242-1.263V165.9h3.461v10.32q0 1.832-.953 2.843t-2.818 1.011zm3.875-15.206q-.684 0-1.14-.4-.435-.422-.435-1.138 0-.674.435-1.074.456-.421 1.14-.421h.477q.684 0 1.119.42.435.401.435 1.075 0 .716-.435 1.137-.435.4-1.12.4z" aria-label="rj" style="font-size:43.3761px;line-height:1.25;font-family:&quot;Good Timing&quot;;-inkscape-font-specification:&quot;Good Timing, Normal&quot;;letter-spacing:0;word-spacing:0;fill:#fff;stroke-width:.522283" transform="translate(-112.724 -158.427)"/></svg>